<svg width="50" height="50" viewBox="0 0 50 50" fill="none" xmlns="http://www.w3.org/2000/svg">
<mask id="mask0_93_1136" style="mask-type:alpha" maskUnits="userSpaceOnUse" x="13" y="13" width="24" height="24">
<rect x="13" y="13" width="24" height="24" fill="#D9D9D9"/>
</mask>
<g mask="url(#mask0_93_1136)">
<path d="M25.0002 25.708L19.754 30.954C19.6605 31.0476 19.5457 31.0976 19.4097 31.104C19.2739 31.1105 19.1528 31.0605 19.0465 30.954C18.94 30.8476 18.8867 30.7297 18.8867 30.6002C18.8867 30.4707 18.94 30.3528 19.0465 30.2465L24.2925 25.0002L19.0465 19.754C18.9528 19.6605 18.9028 19.5457 18.8965 19.4097C18.89 19.2739 18.94 19.1528 19.0465 19.0465C19.1528 18.94 19.2707 18.8867 19.4002 18.8867C19.5297 18.8867 19.6476 18.94 19.754 19.0465L25.0002 24.2925L30.2465 19.0465C30.34 18.9528 30.4547 18.9028 30.5907 18.8965C30.7266 18.89 30.8476 18.94 30.954 19.0465C31.0605 19.1528 31.1137 19.2707 31.1137 19.4002C31.1137 19.5297 31.0605 19.6476 30.954 19.754L25.708 25.0002L30.954 30.2465C31.0476 30.34 31.0976 30.4547 31.104 30.5907C31.1105 30.7266 31.0605 30.8476 30.954 30.954C30.8476 31.0605 30.7297 31.1137 30.6002 31.1137C30.4707 31.1137 30.3528 31.0605 30.2465 30.954L25.0002 25.708Z" fill="black"/>
</g>
</svg>
