<svg width="41" height="41" viewBox="0 0 41 41" fill="none" xmlns="http://www.w3.org/2000/svg">
<g clip-path="url(#clip0_23_6497)">
<rect width="41" height="41" rx="20.5" fill="#E8EBED"/>
<path fill-rule="evenodd" clip-rule="evenodd" d="M22.5778 26.1979C21.6661 25.6036 20.5249 25.4817 19.5082 25.8701C18.2662 26.3445 17.4148 27.4994 17.3289 28.8261L17.1458 31.6551C16.8867 35.6569 13.4325 38.691 9.43064 38.4319C5.4288 38.1728 2.39471 34.7186 2.65382 30.7168L2.83698 27.8878C3.28983 20.8936 7.77833 14.8052 14.3257 12.304C19.6857 10.2564 25.7021 10.899 30.5087 14.0325L30.7764 14.207C36.7611 18.1085 39.9733 25.1003 39.0347 32.1825L38.9516 32.8094C38.1378 38.9496 34.1106 44.1895 28.3866 46.5557L23.1566 48.7178C19.4505 50.2499 15.2042 48.4875 13.6722 44.7815C12.1401 41.0754 13.9025 36.8291 17.6085 35.2971L22.8385 33.135C23.7686 32.7505 24.4229 31.8991 24.5552 30.9015L24.6382 30.2746C24.842 28.7372 24.1447 27.2194 22.8455 26.3725L22.5778 26.1979Z" fill="url(#paint0_linear_23_6497)"/>
<path d="M17.5399 18.278C17.4664 19.4131 16.728 20.2893 15.8907 20.2351C15.0533 20.1808 14.4341 19.2167 14.5076 18.0816C14.581 16.9465 15.3194 16.0703 16.1568 16.1245C16.9942 16.1787 17.6134 17.1429 17.5399 18.278Z" fill="white"/>
<path d="M20.5048 18.4699C20.4313 19.605 19.708 20.4822 18.8892 20.4292C18.0704 20.3762 17.4663 19.413 17.5398 18.2779C17.6133 17.1428 18.3366 16.2656 19.1553 16.3186C19.9741 16.3717 20.5782 17.3348 20.5048 18.4699Z" fill="white"/>
<path d="M17.4463 18.678C17.3993 19.4037 16.7729 19.954 16.0472 19.907C15.3215 19.86 14.7713 19.2336 14.8182 18.5079C14.8652 17.7822 15.4916 17.2319 16.2173 17.2789C16.9431 17.3259 17.4933 17.9523 17.4463 18.678Z" fill="black"/>
<path fill-rule="evenodd" clip-rule="evenodd" d="M16.1039 19.031C16.3458 19.0466 16.5546 18.8632 16.5703 18.6213C16.5859 18.3794 16.4025 18.1706 16.1606 18.1549C15.9187 18.1393 15.7099 18.3227 15.6943 18.5646C15.6786 18.8065 15.862 19.0153 16.1039 19.031ZM16.0472 19.907C16.7729 19.954 17.3993 19.4037 17.4463 18.678C17.4933 17.9523 16.9431 17.3259 16.2173 17.2789C15.4916 17.2319 14.8652 17.7822 14.8182 18.5079C14.7713 19.2336 15.3215 19.86 16.0472 19.907Z" fill="black"/>
<path d="M20.4768 18.908C20.431 19.6151 19.8056 20.1502 19.0799 20.1033C18.3542 20.0563 17.803 19.445 17.8487 18.7378C17.8945 18.0307 18.5199 17.4956 19.2457 17.5426C19.9714 17.5896 20.5226 18.2009 20.4768 18.908Z" fill="black"/>
<path fill-rule="evenodd" clip-rule="evenodd" d="M19.1361 19.2352C19.3698 19.2504 19.5712 19.078 19.5859 18.8503C19.6007 18.6226 19.4232 18.4257 19.1895 18.4106C18.9558 18.3955 18.7543 18.5678 18.7396 18.7955C18.7249 19.0232 18.9024 19.2201 19.1361 19.2352ZM19.0799 20.1033C19.8056 20.1502 20.431 19.6151 20.4768 18.908C20.5226 18.2009 19.9714 17.5896 19.2457 17.5426C18.5199 17.4956 17.8945 18.0307 17.8487 18.7378C17.803 19.445 18.3542 20.0563 19.0799 20.1033Z" fill="black"/>
<path d="M16.9055 18.6774C16.891 18.9007 16.6983 19.07 16.475 19.0555C16.2517 19.0411 16.0824 18.8483 16.0969 18.625C16.1113 18.4017 16.3041 18.2324 16.5274 18.2469C16.7507 18.2613 16.92 18.4541 16.9055 18.6774Z" fill="#F7F8F9"/>
<path d="M19.9377 18.8737C19.9233 19.097 19.7305 19.2663 19.5072 19.2518C19.2839 19.2373 19.1146 19.0446 19.1291 18.8213C19.1436 18.598 19.3363 18.4287 19.5596 18.4432C19.7829 18.4576 19.9522 18.6504 19.9377 18.8737Z" fill="#F7F8F9"/>
<path d="M17.0818 18.0455C17.0734 18.1759 16.9759 18.2757 16.8642 18.2685C16.7524 18.2612 16.6687 18.1497 16.6771 18.0193C16.6855 17.8889 16.783 17.7891 16.8947 17.7963C17.0065 17.8035 17.0902 17.9151 17.0818 18.0455Z" fill="#F7F8F9"/>
<path d="M20.1824 18.2462C20.1739 18.3765 20.0765 18.4764 19.9647 18.4691C19.853 18.4619 19.7692 18.3503 19.7777 18.22C19.7861 18.0896 19.8836 17.9898 19.9953 17.997C20.1071 18.0042 20.1908 18.1158 20.1824 18.2462Z" fill="#F7F8F9"/>
<path d="M18.2254 21.2999C18.1928 21.8024 17.7441 22.1823 17.2231 22.1486C16.702 22.1148 16.306 21.6802 16.3386 21.1778C16.3711 20.6754 16.8198 20.2954 17.3409 20.3291C17.8619 20.3629 18.2579 20.7975 18.2254 21.2999Z" fill="black"/>
<path fill-rule="evenodd" clip-rule="evenodd" d="M17.3044 20.8923C17.1059 20.8794 16.935 21.0242 16.9226 21.2156C16.9102 21.407 17.061 21.5726 17.2595 21.5854C17.458 21.5983 17.629 21.4535 17.6414 21.2621C17.6537 21.0707 17.5029 20.9052 17.3044 20.8923ZM17.2231 22.1486C17.7441 22.1823 18.1928 21.8024 18.2254 21.2999C18.2579 20.7975 17.8619 20.3629 17.3409 20.3291C16.8198 20.2954 16.3711 20.6754 16.3386 21.1778C16.306 21.6802 16.702 22.1148 17.2231 22.1486Z" fill="#FF807F"/>
</g>
<defs>
<linearGradient id="paint0_linear_23_6497" x1="22.322" y1="17.1875" x2="19.3835" y2="41.8886" gradientUnits="userSpaceOnUse">
<stop stop-color="#FDBBBD"/>
<stop offset="1" stop-color="#EF5C5A"/>
</linearGradient>
<clipPath id="clip0_23_6497">
<rect width="41" height="41" rx="20.5" fill="white"/>
</clipPath>
</defs>
</svg>
