<svg width="135" height="149" viewBox="0 0 135 149" fill="none" xmlns="http://www.w3.org/2000/svg">
<path fill-rule="evenodd" clip-rule="evenodd" d="M77.6671 60.2687C74.472 58.1857 70.4727 57.7586 66.9096 59.1197C62.5573 60.7824 59.5737 64.8296 59.2726 69.4789L58.6307 79.393C57.7227 93.4171 45.6178 104.05 31.5936 103.142C17.5694 102.234 6.93665 90.1289 7.84466 76.1047L8.48655 66.1907C10.0735 41.6799 25.8032 20.3435 48.748 11.5782C67.5318 4.40253 88.6158 6.65449 105.46 17.6356L106.398 18.2472C127.371 31.9198 138.628 56.4222 135.339 81.2414L135.048 83.4382C132.196 104.956 118.083 123.319 98.0235 131.611L79.6953 139.188C66.7077 144.557 51.8268 138.381 46.4578 125.394C41.0888 112.406 47.2649 97.5251 60.2524 92.1561L78.5806 84.5793C81.84 83.2319 84.1332 80.2482 84.5965 76.7519L84.8877 74.555C85.6017 69.1673 83.1581 63.8483 78.6053 60.8803L77.6671 60.2687Z" fill="url(#paint0_linear_23_7054)"/>
<path d="M60.01 32.5136C59.7524 36.4915 57.1648 39.5621 54.2303 39.3721C51.2958 39.1822 49.1257 35.8034 49.3833 31.8256C49.6408 27.8477 52.2285 24.7771 55.163 24.9671C58.0974 25.1571 60.2675 28.5358 60.01 32.5136Z" fill="white"/>
<path d="M70.4027 33.1858C70.1452 37.1637 67.6104 40.2378 64.7411 40.052C61.8718 39.8662 59.7546 36.4909 60.0122 32.5131C60.2697 28.5352 62.8045 25.4611 65.6738 25.6469C68.5431 25.8327 70.6603 29.208 70.4027 33.1858Z" fill="white"/>
<path d="M59.6841 33.916C59.5195 36.4593 57.3243 38.3875 54.7811 38.2228C52.2378 38.0581 50.3096 35.863 50.4743 33.3197C50.639 30.7765 52.8341 28.8483 55.3774 29.013C57.9206 29.1777 59.8488 31.3728 59.6841 33.916Z" fill="black"/>
<path fill-rule="evenodd" clip-rule="evenodd" d="M54.9798 35.1529C55.8276 35.2078 56.5593 34.565 56.6142 33.7173C56.6691 32.8695 56.0263 32.1378 55.1786 32.0829C54.3309 32.028 53.5991 32.6708 53.5442 33.5185C53.4894 34.3663 54.1321 35.098 54.9798 35.1529ZM54.7811 38.2228C57.3243 38.3875 59.5195 36.4593 59.6841 33.916C59.8488 31.3728 57.9206 29.1777 55.3774 29.013C52.8341 28.8483 50.639 30.7765 50.4743 33.3197C50.3096 35.863 52.2378 38.0581 54.7811 38.2228Z" fill="black"/>
<path d="M70.3021 34.7213C70.1417 37.1993 67.9499 39.0747 65.4067 38.91C62.8635 38.7453 60.9319 36.603 61.0923 34.125C61.2527 31.647 63.4445 29.7717 65.9877 29.9363C68.5309 30.101 70.4626 32.2433 70.3021 34.7213Z" fill="black"/>
<path fill-rule="evenodd" clip-rule="evenodd" d="M65.6037 35.8681C66.4227 35.9211 67.1285 35.3172 67.1801 34.5192C67.2318 33.7212 66.6098 33.0313 65.7908 32.9783C64.9718 32.9252 64.2659 33.5291 64.2143 34.3271C64.1626 35.1251 64.7847 35.815 65.6037 35.8681ZM65.4067 38.91C67.9499 39.0747 70.1417 37.1993 70.3021 34.7213C70.4626 32.2433 68.5309 30.101 65.9877 29.9363C63.4445 29.7717 61.2527 31.647 61.0923 34.125C60.9319 36.603 62.8635 38.7453 65.4067 38.91Z" fill="black"/>
<path d="M57.786 33.9134C57.7353 34.6959 57.0599 35.2892 56.2774 35.2385C55.4948 35.1878 54.9015 34.5124 54.9522 33.7299C55.0029 32.9474 55.6783 32.3541 56.4608 32.4047C57.2434 32.4554 57.8367 33.1308 57.786 33.9134Z" fill="#F7F8F9"/>
<path d="M68.41 34.6009C68.3594 35.3834 67.6839 35.9767 66.9014 35.926C66.1189 35.8753 65.5256 35.1999 65.5762 34.4174C65.6269 33.6349 66.3023 33.0416 67.0849 33.0922C67.8674 33.1429 68.4607 33.8183 68.41 34.6009Z" fill="#F7F8F9"/>
<path d="M58.4014 31.6993C58.3718 32.1565 58.0302 32.5065 57.6384 32.4811C57.2466 32.4557 56.9529 32.0646 56.9825 31.6075C57.0121 31.1504 57.3538 30.8004 57.7456 30.8257C58.1374 30.8511 58.431 31.2422 58.4014 31.6993Z" fill="#F7F8F9"/>
<path d="M69.2716 32.4025C69.242 32.8596 68.9003 33.2096 68.5085 33.1842C68.1167 33.1589 67.8231 32.7677 67.8527 32.3106C67.8823 31.8535 68.2239 31.5035 68.6157 31.5288C69.0075 31.5542 69.3012 31.9453 69.2716 32.4025Z" fill="#F7F8F9"/>
<path d="M62.4087 43.1039C62.2947 44.8646 60.7221 46.1961 58.8962 46.0779C57.0703 45.9596 55.6825 44.4365 55.7965 42.6758C55.9105 40.9151 57.4831 39.5836 59.309 39.7018C61.1349 39.8201 62.5227 41.3432 62.4087 43.1039Z" fill="black"/>
<path fill-rule="evenodd" clip-rule="evenodd" d="M59.1812 41.6754C58.4857 41.6303 57.8866 42.1376 57.8431 42.8083C57.7997 43.4791 58.3284 44.0593 59.024 44.1043C59.7195 44.1494 60.3186 43.6421 60.3621 42.9714C60.4055 42.3007 59.8768 41.7204 59.1812 41.6754ZM58.8962 46.0779C60.7221 46.1961 62.2947 44.8646 62.4087 43.1039C62.5227 41.3432 61.1349 39.8201 59.309 39.7018C57.4831 39.5836 55.9105 40.9151 55.7965 42.6758C55.6825 44.4365 57.0703 45.9596 58.8962 46.0779Z" fill="#FF807F"/>
<defs>
<linearGradient id="paint0_linear_23_7054" x1="76.7706" y1="28.6922" x2="66.4728" y2="115.256" gradientUnits="userSpaceOnUse">
<stop stop-color="#FDBBBD"/>
<stop offset="1" stop-color="#EF5C5A"/>
</linearGradient>
</defs>
</svg>
